<svg xmlns="http://www.w3.org/2000/svg" xmlns:xlink="http://www.w3.org/1999/xlink" width="1080" zoomAndPan="magnify" viewBox="0 0 810 809.999993" height="1080" preserveAspectRatio="xMidYMid meet" version="1.0"><defs><g/><clipPath id="7eb221b92d"><path d="M 293 231.289062 L 631.257812 231.289062 L 631.257812 569.542969 L 293 569.542969 Z M 293 231.289062 " clip-rule="nonzero"/></clipPath><clipPath id="b634b84a4f"><path d="M 462.128906 231.289062 C 368.722656 231.289062 293 307.011719 293 400.417969 C 293 493.824219 368.722656 569.542969 462.128906 569.542969 C 555.535156 569.542969 631.257812 493.824219 631.257812 400.417969 C 631.257812 307.011719 555.535156 231.289062 462.128906 231.289062 Z M 462.128906 231.289062 " clip-rule="nonzero"/></clipPath></defs><rect x="-81" width="972" fill="#ffffff" y="-80.999999" height="971.999992" fill-opacity="1"/><rect x="-81" width="972" fill="#ffffff" y="-80.999999" height="971.999992" fill-opacity="1"/><g fill="#110066" fill-opacity="1"><g transform="translate(-3.191486, 784.716274)"><g><path d="M 456.890625 13.109375 C 378.921875 13.109375 308.421875 -3.828125 245.390625 -37.703125 C 182.359375 -71.585938 132.804688 -118.585938 96.734375 -178.703125 C 60.660156 -238.828125 42.625 -306.78125 42.625 -382.5625 C 42.625 -458.351562 60.660156 -526.304688 96.734375 -586.421875 C 132.804688 -646.535156 182.359375 -693.535156 245.390625 -727.421875 C 308.421875 -761.304688 379.285156 -778.25 457.984375 -778.25 C 524.296875 -778.25 584.226562 -766.585938 637.78125 -743.265625 C 691.34375 -719.953125 736.34375 -686.4375 772.78125 -642.71875 L 659.109375 -537.78125 C 607.367188 -597.53125 543.242188 -627.40625 466.734375 -627.40625 C 419.367188 -627.40625 377.101562 -617.019531 339.9375 -596.25 C 302.769531 -575.488281 273.800781 -546.523438 253.03125 -509.359375 C 232.269531 -472.191406 221.890625 -429.925781 221.890625 -382.5625 C 221.890625 -335.195312 232.269531 -292.929688 253.03125 -255.765625 C 273.800781 -218.609375 302.769531 -189.644531 339.9375 -168.875 C 377.101562 -148.101562 419.367188 -137.71875 466.734375 -137.71875 C 543.242188 -137.71875 607.367188 -167.960938 659.109375 -228.453125 L 772.78125 -123.515625 C 736.34375 -79.066406 691.160156 -45.179688 637.234375 -21.859375 C 583.316406 1.453125 523.203125 13.109375 456.890625 13.109375 Z M 456.890625 13.109375 "/></g></g></g><g clip-path="url(#7eb221b92d)"><g clip-path="url(#b634b84a4f)"><path fill="#008cff" d="M 293 231.289062 L 631.257812 231.289062 L 631.257812 569.542969 L 293 569.542969 Z M 293 231.289062 " fill-opacity="1" fill-rule="nonzero"/></g></g></svg>