<svg xmlns="http://www.w3.org/2000/svg" xmlns:xlink="http://www.w3.org/1999/xlink" width="2000" zoomAndPan="magnify" viewBox="0 0 1500 374.999991" height="500" preserveAspectRatio="xMidYMid meet" version="1.0"><defs><g/><clipPath id="dab750e9d9"><path d="M 153.691406 113.074219 L 304.859375 113.074219 L 304.859375 264.242188 L 153.691406 264.242188 Z M 153.691406 113.074219 " clip-rule="nonzero"/></clipPath><clipPath id="ddea082097"><path d="M 229.273438 113.074219 C 187.53125 113.074219 153.691406 146.914062 153.691406 188.65625 C 153.691406 230.402344 187.53125 264.242188 229.273438 264.242188 C 271.019531 264.242188 304.859375 230.402344 304.859375 188.65625 C 304.859375 146.914062 271.019531 113.074219 229.273438 113.074219 Z M 229.273438 113.074219 " clip-rule="nonzero"/></clipPath></defs><rect x="-150" width="1800" fill="#ffffff" y="-37.499999" height="449.999989" fill-opacity="1"/><rect x="-150" width="1800" fill="#ffffff" y="-37.499999" height="449.999989" fill-opacity="1"/><g fill="#110066" fill-opacity="1"><g transform="translate(21.244061, 359.710689)"><g><path d="M 204.1875 5.859375 C 169.34375 5.859375 137.832031 -1.707031 109.65625 -16.84375 C 81.488281 -31.988281 59.34375 -52.992188 43.21875 -79.859375 C 27.101562 -106.734375 19.046875 -137.101562 19.046875 -170.96875 C 19.046875 -204.832031 27.101562 -235.195312 43.21875 -262.0625 C 59.34375 -288.9375 81.488281 -309.941406 109.65625 -325.078125 C 137.832031 -340.222656 169.503906 -347.796875 204.671875 -347.796875 C 234.304688 -347.796875 261.09375 -342.582031 285.03125 -332.15625 C 308.96875 -321.738281 329.078125 -306.765625 345.359375 -287.234375 L 294.5625 -240.328125 C 271.4375 -267.035156 242.773438 -280.390625 208.578125 -280.390625 C 187.410156 -280.390625 168.519531 -275.75 151.90625 -266.46875 C 135.300781 -257.1875 122.359375 -244.238281 113.078125 -227.625 C 103.796875 -211.019531 99.15625 -192.132812 99.15625 -170.96875 C 99.15625 -149.800781 103.796875 -130.910156 113.078125 -114.296875 C 122.359375 -97.691406 135.300781 -84.75 151.90625 -75.46875 C 168.519531 -66.1875 187.410156 -61.546875 208.578125 -61.546875 C 242.773438 -61.546875 271.4375 -75.0625 294.5625 -102.09375 L 345.359375 -55.203125 C 329.078125 -35.335938 308.882812 -20.191406 284.78125 -9.765625 C 260.6875 0.648438 233.820312 5.859375 204.1875 5.859375 Z M 204.1875 5.859375 "/></g></g></g><g fill="#110066" fill-opacity="1"><g transform="translate(379.307696, 359.710689)"><g><path d="M 206.140625 5.859375 C 170.640625 5.859375 138.640625 -1.789062 110.140625 -17.09375 C 81.648438 -32.40625 59.34375 -53.492188 43.21875 -80.359375 C 27.101562 -107.222656 19.046875 -137.425781 19.046875 -170.96875 C 19.046875 -204.507812 27.101562 -234.710938 43.21875 -261.578125 C 59.34375 -288.453125 81.648438 -309.539062 110.140625 -324.84375 C 138.640625 -340.144531 170.640625 -347.796875 206.140625 -347.796875 C 241.640625 -347.796875 273.550781 -340.144531 301.875 -324.84375 C 330.207031 -309.539062 352.515625 -288.453125 368.796875 -261.578125 C 385.085938 -234.710938 393.234375 -204.507812 393.234375 -170.96875 C 393.234375 -137.425781 385.085938 -107.222656 368.796875 -80.359375 C 352.515625 -53.492188 330.207031 -32.40625 301.875 -17.09375 C 273.550781 -1.789062 241.640625 5.859375 206.140625 5.859375 Z M 206.140625 -61.546875 C 226.328125 -61.546875 244.5625 -66.1875 260.84375 -75.46875 C 277.132812 -84.75 289.921875 -97.691406 299.203125 -114.296875 C 308.484375 -130.910156 313.125 -149.800781 313.125 -170.96875 C 313.125 -192.132812 308.484375 -211.019531 299.203125 -227.625 C 289.921875 -244.238281 277.132812 -257.1875 260.84375 -266.46875 C 244.5625 -275.75 226.328125 -280.390625 206.140625 -280.390625 C 185.953125 -280.390625 167.710938 -275.75 151.421875 -266.46875 C 135.140625 -257.1875 122.359375 -244.238281 113.078125 -227.625 C 103.796875 -211.019531 99.15625 -192.132812 99.15625 -170.96875 C 99.15625 -149.800781 103.796875 -130.910156 113.078125 -114.296875 C 122.359375 -97.691406 135.140625 -84.75 151.421875 -75.46875 C 167.710938 -66.1875 185.953125 -61.546875 206.140625 -61.546875 Z M 206.140625 -61.546875 "/></g></g></g><g fill="#110066" fill-opacity="1"><g transform="translate(791.593753, 359.710689)"><g><path d="M 258.40625 0 L 192.46875 -95.25 L 119.671875 -95.25 L 119.671875 0 L 40.546875 0 L 40.546875 -341.9375 L 188.5625 -341.9375 C 218.84375 -341.9375 245.132812 -336.890625 267.4375 -326.796875 C 289.75 -316.703125 306.925781 -302.375 318.96875 -283.8125 C 331.019531 -265.25 337.046875 -243.265625 337.046875 -217.859375 C 337.046875 -192.460938 330.941406 -170.5625 318.734375 -152.15625 C 306.523438 -133.757812 289.1875 -119.675781 266.71875 -109.90625 L 343.40625 0 Z M 256.9375 -217.859375 C 256.9375 -237.078125 250.75 -251.8125 238.375 -262.0625 C 226 -272.320312 207.925781 -277.453125 184.15625 -277.453125 L 119.671875 -277.453125 L 119.671875 -158.265625 L 184.15625 -158.265625 C 207.925781 -158.265625 226 -163.472656 238.375 -173.890625 C 250.75 -184.316406 256.9375 -198.972656 256.9375 -217.859375 Z M 256.9375 -217.859375 "/></g></g></g><g fill="#110066" fill-opacity="1"><g transform="translate(1150.634367, 359.710689)"><g><path d="M 305.296875 -63.5 L 305.296875 0 L 40.546875 0 L 40.546875 -341.9375 L 298.953125 -341.9375 L 298.953125 -278.4375 L 119.1875 -278.4375 L 119.1875 -204.1875 L 277.953125 -204.1875 L 277.953125 -142.640625 L 119.1875 -142.640625 L 119.1875 -63.5 Z M 305.296875 -63.5 "/></g></g></g><g clip-path="url(#dab750e9d9)"><g clip-path="url(#ddea082097)"><path fill="#008cff" d="M 153.691406 113.074219 L 304.859375 113.074219 L 304.859375 264.242188 L 153.691406 264.242188 Z M 153.691406 113.074219 " fill-opacity="1" fill-rule="nonzero"/></g></g></svg>